<svg xmlns="http://www.w3.org/2000/svg" data-v-fde0c5aa="" class="iconLeft" viewBox="40 130.9 220 38.2">
    <g data-v-fde0c5aa="" id="67154743-9cde-48d7-865f-c3d1e64d8c13" fill="#AFAFAF" transform="matrix(2.397880537537395,0,0,2.397880537537395,83.82771969702003,133.64647032995106)">
        <path d="M8.00 10.63L8.00 10.63L8.00 10.63Q8.62 9.60 8.74 8.61L8.74 8.61L8.74 8.61Q8.74 1.50 8.74 1.51L8.74 1.51L7.79 1.51L7.79 5.69L7.79 5.69Q7.18 4.95 6.43 4.58L6.43 4.58L6.43 4.58Q5.67 4.22 4.78 4.22L4.78 4.22L4.78 4.22Q3.19 4.22 2.06 5.37L2.06 5.37L2.06 5.37Q0.94 6.53 0.94 8.18L0.94 8.18L0.94 8.18Q0.94 9.80 2.07 10.94L2.07 10.94L2.07 10.94Q3.21 12.09 4.81 12.09L4.81 12.09L4.81 12.09Q5.72 12.09 6.52 11.74L6.52 11.74L6.52 11.74Q7.33 11.39 8.00 10.63ZM4.89 11.17L4.89 11.17L4.89 11.17Q4.07 11.17 3.39 10.77L3.39 10.77L3.39 10.77Q2.71 10.37 2.31 9.66L2.31 9.66L2.31 9.66Q1.91 8.95 1.91 8.14L1.91 8.14L1.91 8.14Q1.91 7.35 2.31 6.62L2.31 6.62L2.31 6.62Q2.72 5.89 3.41 5.49L3.41 5.49L3.41 5.49Q4.09 5.09 4.87 5.09L4.87 5.09L4.87 5.09Q5.67 5.09 6.38 5.49L6.38 5.49L6.38 5.49Q7.09 5.89 7.47 6.58L7.47 6.58L7.47 6.58Q7.85 7.27 7.85 8.11L7.85 8.11L7.85 8.11Q7.85 9.42 6.99 10.29L6.99 10.29L6.99 10.29Q6.13 11.17 4.89 11.17ZM14.26 4.22L14.26 4.22L14.26 4.22Q15.99 4.22 17.13 5.47L17.13 5.47L17.13 5.47Q18.18 6.61 18.18 8.18L18.18 8.18L18.18 8.18Q18.20 12.07 18.18 12.13L18.18 12.13L18.18 12.13Q17.53 12.13 17.17 12.13L17.17 12.13L17.17 12.13Q17.17 12.08 17.17 10.42L17.17 10.42L17.17 10.42Q16.37 11.92 14.26 12.09L14.26 12.09L14.26 12.09Q12.54 12.09 11.45 10.92L11.45 10.92L11.45 10.92Q10.36 9.75 10.36 8.18L10.36 8.18L10.36 8.18Q10.36 6.62 11.39 5.48L11.39 5.48L11.39 5.48Q12.53 4.22 14.26 4.22ZM14.26 5.16L14.26 5.16L14.26 5.16Q13.06 5.16 12.20 6.05L12.20 6.05L12.20 6.05Q11.34 6.94 11.34 8.20L11.34 8.20L11.34 8.20Q11.34 9.01 11.78 9.76L11.78 9.76L11.78 9.76Q12.22 10.51 13.28 11.03L13.28 11.03L13.28 11.03Q15.91 11.62 17.03 8.63L17.03 8.63L17.03 8.63Q17.09 7.68 16.82 6.80L16.82 6.80L16.82 6.80Q16.63 6.41 16.30 6.05L16.30 6.05L16.30 6.05Q15.46 5.16 14.26 5.16ZM20.05 12.10L20.05 1.70L21.02 1.70L21.02 5.95L21.02 5.95Q21.60 5.17 22.30 4.79L22.30 4.79L22.30 4.79Q23.00 4.41 23.82 4.41L23.82 4.41L23.82 4.41Q24.67 4.41 25.32 4.84L25.32 4.84L25.32 4.84Q25.97 5.26 26.28 5.98L26.28 5.98L26.28 5.98Q26.58 6.70 26.58 8.24L26.58 8.24L26.58 12.10L25.63 12.10L25.63 8.52L25.63 8.52Q25.63 7.23 25.52 6.79L25.52 6.79L25.52 6.79Q25.34 6.04 24.87 5.67L24.87 5.67L24.87 5.67Q24.40 5.30 23.63 5.30L23.63 5.30L23.63 5.30Q22.76 5.30 22.06 5.88L22.06 5.88L22.06 5.88Q21.37 6.45 21.15 7.31L21.15 7.31L21.15 7.31Q21.02 7.85 21.02 9.35L21.02 9.35L21.02 12.10L20.05 12.10ZM28.49 12.09L28.49 1.69L29.46 1.69L29.46 12.09L28.49 12.09ZM31.45 12.09L31.45 9.24L31.44 8.44L31.44 8.44Q31.42 7.85 31.49 7.44L31.49 7.44L31.49 7.44Q31.64 6.15 32.14 5.55L32.14 5.55L32.14 5.55Q32.63 5.02 33.15 4.74L33.15 4.74L33.15 4.74Q34.00 4.38 35.08 4.40L35.08 4.40L35.08 4.40Q35.93 4.40 36.65 4.82L36.65 4.82L36.65 4.82Q37.37 5.25 37.68 5.97L37.68 5.97L37.68 5.97Q37.99 6.69 37.99 8.23L37.99 8.23L37.99 12.09L37.03 12.09L37.03 8.51L37.03 8.51Q37.03 7.21 36.92 6.77L36.92 6.77L36.92 6.77Q36.75 6.03 36.24 5.72L36.24 5.72L36.24 5.72Q35.74 5.41 34.75 5.41L34.75 5.41L34.75 5.41Q33.87 5.41 33.19 5.91L33.19 5.91L33.19 5.91Q32.50 6.42 32.55 7.29L32.55 7.29L32.55 7.29Q32.42 7.85 32.42 9.34L32.42 9.34L32.42 12.09L31.45 12.09ZM41.10 10.39L41.10 10.39L41.10 10.39Q41.45 10.39 41.70 10.64L41.70 10.64L41.70 10.64Q41.95 10.89 41.95 11.25L41.95 11.25L41.95 11.25Q41.95 11.59 41.70 11.84L41.70 11.84L41.70 11.84Q41.45 12.09 41.10 12.09L41.10 12.09L41.10 12.09Q40.74 12.09 40.50 11.84L40.50 11.84L40.50 11.84Q40.25 11.59 40.25 11.25L40.25 11.25L40.25 11.25Q40.25 10.89 40.50 10.64L40.50 10.64L40.50 10.64Q40.74 10.39 41.10 10.39ZM51.21 5.97L51.21 5.97L50.44 6.45L50.44 6.45Q49.45 5.12 47.74 5.12L47.74 5.12L47.74 5.12Q46.36 5.12 45.46 6.00L45.46 6.00L45.46 6.00Q44.55 6.88 44.55 8.15L44.55 8.15L44.55 8.15Q44.55 8.97 44.97 9.70L44.97 9.70L44.97 9.70Q45.38 10.42 46.11 10.82L46.11 10.82L46.11 10.82Q46.83 11.22 47.74 11.22L47.74 11.22L47.74 11.22Q49.40 11.22 50.44 9.91L50.44 9.91L51.21 10.40L51.21 10.40Q50.67 11.21 49.76 11.65L49.76 11.65L49.76 11.65Q48.86 12.09 47.69 12.09L47.69 12.09L47.69 12.09Q45.92 12.09 44.75 10.96L44.75 10.96L44.75 10.96Q43.58 9.84 43.58 8.22L43.58 8.22L43.58 8.22Q43.58 7.13 44.13 6.20L44.13 6.20L44.13 6.20Q44.68 5.26 45.63 4.74L45.63 4.74L45.63 4.74Q46.59 4.22 47.78 4.22L47.78 4.22L47.78 4.22Q48.51 4.22 49.21 4.44L49.21 4.44L49.21 4.44Q49.90 4.67 50.39 5.03L50.39 5.03L50.39 5.03Q50.87 5.40 51.21 5.97ZM56.59 4.22L56.59 4.22L56.59 4.22Q58.32 4.22 59.47 5.47L59.47 5.47L59.47 5.47Q60.50 6.62 60.50 8.18L60.50 8.18L60.50 8.18Q60.50 9.75 59.40 10.92L59.40 10.92L59.40 10.92Q58.31 12.09 56.59 12.09L56.59 12.09L56.59 12.09Q54.87 12.09 53.78 10.92L53.78 10.92L53.78 10.92Q52.69 9.75 52.69 8.18L52.69 8.18L52.69 8.18Q52.69 6.62 53.72 5.48L53.72 5.48L53.72 5.48Q54.87 4.22 56.59 4.22ZM56.59 5.16L56.59 5.16L56.59 5.16Q55.40 5.16 54.54 6.05L54.54 6.05L54.54 6.05Q53.68 6.94 53.68 8.20L53.68 8.20L53.68 8.20Q53.68 9.01 54.07 9.72L54.07 9.72L54.07 9.72Q54.46 10.42 55.13 10.80L55.13 10.80L55.13 10.80Q55.80 11.18 56.59 11.18L56.59 11.18L56.59 11.18Q57.40 11.18 58.07 10.80L58.07 10.80L58.07 10.80Q58.73 10.42 59.12 9.72L59.12 9.72L59.12 9.72Q59.51 9.01 59.51 8.20L59.51 8.20L59.51 8.20Q59.51 6.94 58.65 6.05L58.65 6.05L58.65 6.05Q57.79 5.16 56.59 5.16ZM62.26 12.09L62.26 9.18L62.26 7.98L62.26 7.98Q62.38 6.45 62.90 5.74L62.90 5.74L62.90 5.74Q63.33 5.09 64.03 4.71L64.03 4.71L64.03 4.71Q64.49 4.42 65.34 4.40L65.34 4.40L65.34 4.40Q65.88 4.40 66.45 4.60L66.45 4.60L66.45 4.60Q67.01 4.81 67.31 5.15L67.31 5.15L67.31 5.15Q67.62 5.49 67.94 6.17L67.94 6.17L67.94 6.17Q68.11 5.74 68.65 5.15L68.65 5.15L68.65 5.15Q68.92 4.92 69.34 4.70L69.34 4.70L69.34 4.70Q69.63 4.52 70.68 4.40L70.68 4.40L70.68 4.40Q71.46 4.40 72.17 4.79L72.17 4.79L72.17 4.79Q72.89 5.17 73.18 5.88L73.18 5.88L73.18 5.88Q73.47 6.59 73.47 7.99L73.47 7.99L73.47 12.09L72.49 12.09L72.49 7.99L72.49 7.99Q72.49 6.79 72.32 6.34L72.32 6.34L72.32 6.34Q72.15 5.89 71.73 5.61L71.73 5.61L71.73 5.61Q71.31 5.33 70.72 5.33L70.72 5.33L70.72 5.33Q69.62 5.41 68.83 6.41L68.83 6.41L68.83 6.41Q68.52 6.83 68.37 8.29L68.37 8.29L68.37 12.09L67.40 12.09L67.40 8.24L67.40 8.24Q67.40 6.89 67.10 6.40L67.10 6.40L67.10 6.40Q66.80 5.91 66.38 5.62L66.38 5.62L66.38 5.62Q65.97 5.33 65.34 5.33L65.34 5.33L65.34 5.33Q64.67 5.33 64.19 5.67L64.19 5.67L64.19 5.67Q63.71 6.02 63.44 6.70L63.44 6.70L63.44 6.70Q63.16 7.38 63.22 8.91L63.22 8.91L63.22 12.09L62.26 12.09Z"/>
    </g>
    <g data-v-fde0c5aa="" id="6c85286b-e518-429c-a209-cd676b8d44ad" stroke="none" fill="#6387DF" transform="matrix(0.4654808516987397,0,0,0.4654808516987397,35.594223667644684,129.05336245041167)">
        <path d="M38.182 57.753L20.18 47.91v-5.455l18.002-9.803v6.422l-12.557 6.039 12.557 6.266zM39.848 62.08l6.503-34.162h3.785L43.56 62.08zM51.8 57.78V51.4l12.572-6.219L51.8 39.028v-6.332L69.82 42.5v5.41z"/>
        <path d="M44.999 86.031L9.465 65.517V24.484L44.999 3.969l35.536 20.516v41.029L44.999 86.031zM13.07 63.434l31.929 18.434L76.93 63.434V26.566L44.999 8.131 13.07 26.565v36.869z"/>
    </g> <!---->
</svg>