<svg xmlns="http://www.w3.org/2000/svg" data-v-fde0c5aa="" class="iconLeft" viewBox="40 130.9 33.08 38.2">
    <g data-v-fde0c5aa="" id="6c85286b-e518-429c-a209-cd676b8d44ad" stroke="none" fill="#6387DF" transform="matrix(0.4654808516987397,0,0,0.4654808516987397,35.594223667644684,129.05336245041167)">
        <path d="M38.182 57.753L20.18 47.91v-5.455l18.002-9.803v6.422l-12.557 6.039 12.557 6.266zM39.848 62.08l6.503-34.162h3.785L43.56 62.08zM51.8 57.78V51.4l12.572-6.219L51.8 39.028v-6.332L69.82 42.5v5.41z"/>
        <path d="M44.999 86.031L9.465 65.517V24.484L44.999 3.969l35.536 20.516v41.029L44.999 86.031zM13.07 63.434l31.929 18.434L76.93 63.434V26.566L44.999 8.131 13.07 26.565v36.869z"/>
    </g> <!---->
</svg>