<svg xmlns="http://www.w3.org/2000/svg" data-v-fde0c5aa="" class="iconLeft" viewBox="40 132.02 31.96 35.95">
    <g data-v-fde0c5aa="" id="eb879cf6-fc26-410d-9677-3775e2356bc5" stroke="none" fill="#B276E6" transform="matrix(0.04737723049157051,0,0,0.04737723049157051,40,132.024510826201)">
        <path d="M210.985 0C129.123 0 62.514 66.606 62.514 148.467v166.726c0 17.253-13.972 31.257-31.257 31.257C13.972 346.45 0 360.421 0 377.707c0 .571.02 1.141.05 1.706-.03.563-.05 1.13-.05 1.7 0 17.285 13.972 31.26 31.257 31.26 17.285 0 31.257 14.003 31.257 31.258v166.721c0 81.862 66.609 148.472 148.471 148.472 17.285 0 31.257-13.971 31.257-31.256s-13.972-31.258-31.257-31.258c-47.386 0-85.957-38.541-85.957-85.958V443.631c0-24.828-9.723-47.418-25.535-64.214 15.815-16.795 25.535-39.39 25.535-64.224V148.467c0-47.416 38.571-85.954 85.957-85.954 17.285 0 31.257-13.972 31.257-31.257C242.242 13.971 228.27 0 210.985 0zm252.616 0c-17.285 0-31.254 13.971-31.254 31.256s13.969 31.257 31.254 31.257c47.449 0 85.96 38.538 85.96 85.954v166.726c0 24.831 9.722 47.423 25.538 64.218-15.816 16.794-25.538 39.388-25.538 64.22v166.721c0 47.417-38.511 85.958-85.96 85.958-17.285 0-31.254 13.973-31.254 31.258 0 17.285 13.969 31.256 31.254 31.256 81.895 0 148.474-66.61 148.474-148.472V443.631c0-17.255 14.034-31.258 31.257-31.258 17.285 0 31.254-13.975 31.254-31.26 0-.57-.02-1.137-.05-1.7.03-.565.05-1.135.05-1.706 0-17.286-13.969-31.257-31.254-31.257-17.223 0-31.257-14.004-31.257-31.257V148.467C612.075 66.606 545.465 0 463.601 0z" />
    </g> <!---->
</svg>