<svg xmlns="http://www.w3.org/2000/svg" data-v-fde0c5aa="" class="iconLeft" viewBox="40 134.82 35.08 30.36">
    <!---->
    <g data-v-fde0c5aa="" id="433e56e4-e0b8-40a4-8426-165d0a8602eb" stroke="none" fill="#746657" transform="matrix(0.42822488272619197,0,0,0.42822488272619197,36.130293991887875,128.5887574972387)">
        <path d="M13.558 85.451a4.522 4.522 0 0 1-4.233-6.111l21.522-57.374c1.731-4.578 5.54-7.417 9.944-7.417 4.455 0 8.456 3.017 9.979 7.513l7.744 21.318a114.06 114.06 0 0 1 1.458-2.723c2.096-3.682 4.814-5.55 8.079-5.55 3.571 0 7.021 2.55 8.389 6.2l14.235 37.981a4.521 4.521 0 0 1-8.468 3.175l-13.84-36.918c-.157-.453-.525-.393-.782.032-.916 1.514-4.382 8.433-5.754 11.131a4.526 4.526 0 0 1-4.307 2.463 4.52 4.52 0 0 1-3.975-2.969l-11.3-31.104-.041-.12c-.364-1.094-1.062-1.386-1.418-1.386-.541 0-1.121.613-1.48 1.56L17.792 82.515a4.524 4.524 0 0 1-4.234 2.936z"/>
    </g> <!---->
</svg>