<svg xmlns="http://www.w3.org/2000/svg" data-v-fde0c5aa="" class="iconLeft" viewBox="40 126.98 220 46.04">
    <!---->
    <g data-v-fde0c5aa="" id="fd8e97d1-2c6f-4d0d-ba68-56ddb2b71d43" fill="#AFAFAF" transform="matrix(2.8876762251941877,0,0,2.8876762251941877,103.48794226049893,130.32048636006746)">
        <path d="M8.00 10.63L8.00 10.63L8.00 10.63Q8.62 9.60 8.74 8.61L8.74 8.61L8.74 8.61Q8.74 1.50 8.74 1.51L8.74 1.51L7.79 1.51L7.79 5.69L7.79 5.69Q7.18 4.95 6.43 4.58L6.43 4.58L6.43 4.58Q5.67 4.22 4.78 4.22L4.78 4.22L4.78 4.22Q3.19 4.22 2.06 5.37L2.06 5.37L2.06 5.37Q0.94 6.53 0.94 8.18L0.94 8.18L0.94 8.18Q0.94 9.80 2.07 10.94L2.07 10.94L2.07 10.94Q3.21 12.09 4.81 12.09L4.81 12.09L4.81 12.09Q5.72 12.09 6.52 11.74L6.52 11.74L6.52 11.74Q7.33 11.39 8.00 10.63ZM4.89 11.17L4.89 11.17L4.89 11.17Q4.07 11.17 3.39 10.77L3.39 10.77L3.39 10.77Q2.71 10.37 2.31 9.66L2.31 9.66L2.31 9.66Q1.91 8.95 1.91 8.14L1.91 8.14L1.91 8.14Q1.91 7.35 2.31 6.62L2.31 6.62L2.31 6.62Q2.72 5.89 3.41 5.49L3.41 5.49L3.41 5.49Q4.09 5.09 4.87 5.09L4.87 5.09L4.87 5.09Q5.67 5.09 6.38 5.49L6.38 5.49L6.38 5.49Q7.09 5.89 7.47 6.58L7.47 6.58L7.47 6.58Q7.85 7.27 7.85 8.11L7.85 8.11L7.85 8.11Q7.85 9.42 6.99 10.29L6.99 10.29L6.99 10.29Q6.13 11.17 4.89 11.17ZM14.26 4.22L14.26 4.22L14.26 4.22Q15.99 4.22 17.13 5.47L17.13 5.47L17.13 5.47Q18.18 6.61 18.18 8.18L18.18 8.18L18.18 8.18Q18.20 12.07 18.18 12.13L18.18 12.13L18.18 12.13Q17.53 12.13 17.17 12.13L17.17 12.13L17.17 12.13Q17.17 12.08 17.17 10.42L17.17 10.42L17.17 10.42Q16.37 11.92 14.26 12.09L14.26 12.09L14.26 12.09Q12.54 12.09 11.45 10.92L11.45 10.92L11.45 10.92Q10.36 9.75 10.36 8.18L10.36 8.18L10.36 8.18Q10.36 6.62 11.39 5.48L11.39 5.48L11.39 5.48Q12.53 4.22 14.26 4.22ZM14.26 5.16L14.26 5.16L14.26 5.16Q13.06 5.16 12.20 6.05L12.20 6.05L12.20 6.05Q11.34 6.94 11.34 8.20L11.34 8.20L11.34 8.20Q11.34 9.01 11.78 9.76L11.78 9.76L11.78 9.76Q12.22 10.51 13.28 11.03L13.28 11.03L13.28 11.03Q15.91 11.62 17.03 8.63L17.03 8.63L17.03 8.63Q17.09 7.68 16.82 6.80L16.82 6.80L16.82 6.80Q16.63 6.41 16.30 6.05L16.30 6.05L16.30 6.05Q15.46 5.16 14.26 5.16ZM20.05 12.10L20.05 1.70L21.02 1.70L21.02 5.95L21.02 5.95Q21.60 5.17 22.30 4.79L22.30 4.79L22.30 4.79Q23.00 4.41 23.82 4.41L23.82 4.41L23.82 4.41Q24.67 4.41 25.32 4.84L25.32 4.84L25.32 4.84Q25.97 5.26 26.28 5.98L26.28 5.98L26.28 5.98Q26.58 6.70 26.58 8.24L26.58 8.24L26.58 12.10L25.63 12.10L25.63 8.52L25.63 8.52Q25.63 7.23 25.52 6.79L25.52 6.79L25.52 6.79Q25.34 6.04 24.87 5.67L24.87 5.67L24.87 5.67Q24.40 5.30 23.63 5.30L23.63 5.30L23.63 5.30Q22.76 5.30 22.06 5.88L22.06 5.88L22.06 5.88Q21.37 6.45 21.15 7.31L21.15 7.31L21.15 7.31Q21.02 7.85 21.02 9.35L21.02 9.35L21.02 12.10L20.05 12.10ZM28.49 12.09L28.49 1.69L29.46 1.69L29.46 12.09L28.49 12.09ZM31.45 12.09L31.45 9.24L31.44 8.44L31.44 8.44Q31.42 7.85 31.49 7.44L31.49 7.44L31.49 7.44Q31.64 6.15 32.14 5.55L32.14 5.55L32.14 5.55Q32.63 5.02 33.15 4.74L33.15 4.74L33.15 4.74Q34.00 4.38 35.08 4.40L35.08 4.40L35.08 4.40Q35.93 4.40 36.65 4.82L36.65 4.82L36.65 4.82Q37.37 5.25 37.68 5.97L37.68 5.97L37.68 5.97Q37.99 6.69 37.99 8.23L37.99 8.23L37.99 12.09L37.03 12.09L37.03 8.51L37.03 8.51Q37.03 7.21 36.92 6.77L36.92 6.77L36.92 6.77Q36.75 6.03 36.24 5.72L36.24 5.72L36.24 5.72Q35.74 5.41 34.75 5.41L34.75 5.41L34.75 5.41Q33.87 5.41 33.19 5.91L33.19 5.91L33.19 5.91Q32.50 6.42 32.55 7.29L32.55 7.29L32.55 7.29Q32.42 7.85 32.42 9.34L32.42 9.34L32.42 12.09L31.45 12.09ZM41.10 10.39L41.10 10.39L41.10 10.39Q41.45 10.39 41.70 10.64L41.70 10.64L41.70 10.64Q41.95 10.89 41.95 11.25L41.95 11.25L41.95 11.25Q41.95 11.59 41.70 11.84L41.70 11.84L41.70 11.84Q41.45 12.09 41.10 12.09L41.10 12.09L41.10 12.09Q40.74 12.09 40.50 11.84L40.50 11.84L40.50 11.84Q40.25 11.59 40.25 11.25L40.25 11.25L40.25 11.25Q40.25 10.89 40.50 10.64L40.50 10.64L40.50 10.64Q40.74 10.39 41.10 10.39ZM44.27 1.50L44.27 1.50L44.27 1.50Q44.60 1.50 44.83 1.74L44.83 1.74L44.83 1.74Q45.07 1.97 45.07 2.30L45.07 2.30L45.07 2.30Q45.07 2.63 44.83 2.86L44.83 2.86L44.83 2.86Q44.60 3.10 44.27 3.10L44.27 3.10L44.27 3.10Q43.94 3.10 43.71 2.86L43.71 2.86L43.71 2.86Q43.48 2.63 43.48 2.30L43.48 2.30L43.48 2.30Q43.48 1.97 43.71 1.74L43.71 1.74L43.71 1.74Q43.94 1.50 44.27 1.50ZM43.79 12.09L43.79 4.59L44.75 4.59L44.75 12.09L43.79 12.09ZM50.29 4.22L50.29 4.22L50.29 4.22Q52.02 4.22 53.16 5.47L53.16 5.47L53.16 5.47Q54.20 6.62 54.20 8.18L54.20 8.18L54.20 8.18Q54.20 9.75 53.10 10.92L53.10 10.92L53.10 10.92Q52.01 12.09 50.29 12.09L50.29 12.09L50.29 12.09Q48.57 12.09 47.48 10.92L47.48 10.92L47.48 10.92Q46.39 9.75 46.39 8.18L46.39 8.18L46.39 8.18Q46.39 6.62 47.42 5.48L47.42 5.48L47.42 5.48Q48.56 4.22 50.29 4.22ZM50.29 5.16L50.29 5.16L50.29 5.16Q49.10 5.16 48.23 6.05L48.23 6.05L48.23 6.05Q47.37 6.94 47.37 8.20L47.37 8.20L47.37 8.20Q47.37 9.01 47.77 9.72L47.77 9.72L47.77 9.72Q48.16 10.42 48.83 10.80L48.83 10.80L48.83 10.80Q49.50 11.18 50.29 11.18L50.29 11.18L50.29 11.18Q51.10 11.18 51.77 10.80L51.77 10.80L51.77 10.80Q52.43 10.42 52.82 9.72L52.82 9.72L52.82 9.72Q53.21 9.01 53.21 8.20L53.21 8.20L53.21 8.20Q53.21 6.94 52.35 6.05L52.35 6.05L52.35 6.05Q51.49 5.16 50.29 5.16Z"/>
    </g>
    <g data-v-fde0c5aa="" id="da8e2348-752c-419a-9328-af56ae313126" stroke="none" fill="#AFAFAF" transform="matrix(0.649403368437685,0,0,0.649403368437685,34.13158782242371,117.52983405539301)">
        <path d="M13.558 85.451a4.522 4.522 0 0 1-4.233-6.111l21.522-57.374c1.731-4.578 5.54-7.417 9.944-7.417 4.455 0 8.456 3.017 9.979 7.513l7.744 21.318a114.06 114.06 0 0 1 1.458-2.723c2.096-3.682 4.814-5.55 8.079-5.55 3.571 0 7.021 2.55 8.389 6.2l14.235 37.981a4.521 4.521 0 0 1-8.468 3.175l-13.84-36.918c-.157-.453-.525-.393-.782.032-.916 1.514-4.382 8.433-5.754 11.131a4.526 4.526 0 0 1-4.307 2.463 4.52 4.52 0 0 1-3.975-2.969l-11.3-31.104-.041-.12c-.364-1.094-1.062-1.386-1.418-1.386-.541 0-1.121.613-1.48 1.56L17.792 82.515a4.524 4.524 0 0 1-4.234 2.936z"/>
    </g> <!---->
</svg>