<svg xmlns="http://www.w3.org/2000/svg" data-v-fde0c5aa="" class="iconLeft" viewBox="40 132.02 220 35.95">
    <!---->
    <g data-v-fde0c5aa="" id="02e530dc-35a6-49e8-95da-6654d65bf3e2" fill="#ffffff" transform="matrix(2.2504497380405164,0,0,2.2504497380405164,82.84459923980982,134.6181920511161)">
        <path d="M8.00 10.63L8.00 10.63L8.00 10.63Q8.62 9.60 8.74 8.61L8.74 8.61L8.74 8.61Q8.74 1.50 8.74 1.51L8.74 1.51L7.79 1.51L7.79 5.69L7.79 5.69Q7.18 4.95 6.43 4.58L6.43 4.58L6.43 4.58Q5.67 4.22 4.78 4.22L4.78 4.22L4.78 4.22Q3.19 4.22 2.06 5.37L2.06 5.37L2.06 5.37Q0.94 6.53 0.94 8.18L0.94 8.18L0.94 8.18Q0.94 9.80 2.07 10.94L2.07 10.94L2.07 10.94Q3.21 12.09 4.81 12.09L4.81 12.09L4.81 12.09Q5.72 12.09 6.52 11.74L6.52 11.74L6.52 11.74Q7.33 11.39 8.00 10.63ZM4.89 11.17L4.89 11.17L4.89 11.17Q4.07 11.17 3.39 10.77L3.39 10.77L3.39 10.77Q2.71 10.37 2.31 9.66L2.31 9.66L2.31 9.66Q1.91 8.95 1.91 8.14L1.91 8.14L1.91 8.14Q1.91 7.35 2.31 6.62L2.31 6.62L2.31 6.62Q2.72 5.89 3.41 5.49L3.41 5.49L3.41 5.49Q4.09 5.09 4.87 5.09L4.87 5.09L4.87 5.09Q5.67 5.09 6.38 5.49L6.38 5.49L6.38 5.49Q7.09 5.89 7.47 6.58L7.47 6.58L7.47 6.58Q7.85 7.27 7.85 8.11L7.85 8.11L7.85 8.11Q7.85 9.42 6.99 10.29L6.99 10.29L6.99 10.29Q6.13 11.17 4.89 11.17ZM14.26 4.22L14.26 4.22L14.26 4.22Q15.99 4.22 17.13 5.47L17.13 5.47L17.13 5.47Q18.16 6.62 18.16 8.18L18.16 8.18L18.16 8.18Q18.16 9.75 17.07 10.92L17.07 10.92L17.07 10.92Q15.98 12.09 14.26 12.09L14.26 12.09L14.26 12.09Q12.54 12.09 11.45 10.92L11.45 10.92L11.45 10.92Q10.36 9.75 10.36 8.18L10.36 8.18L10.36 8.18Q10.36 6.62 11.39 5.48L11.39 5.48L11.39 5.48Q12.53 4.22 14.26 4.22ZM14.26 5.16L14.26 5.16L14.26 5.16Q13.06 5.16 12.20 6.05L12.20 6.05L12.20 6.05Q11.34 6.94 11.34 8.20L11.34 8.20L11.34 8.20Q11.34 9.01 11.73 9.72L11.73 9.72L11.73 9.72Q12.13 10.42 12.80 10.80L12.80 10.80L12.80 10.80Q13.47 11.18 14.26 11.18L14.26 11.18L14.26 11.18Q15.07 11.18 15.73 10.80L15.73 10.80L15.73 10.80Q16.40 10.42 16.79 9.72L16.79 9.72L16.79 9.72Q17.18 9.01 17.18 8.20L17.18 8.20L17.18 8.20Q17.18 6.94 16.32 6.05L16.32 6.05L16.32 6.05Q15.46 5.16 14.26 5.16ZM22.64 11.03L22.64 11.03L22.64 11.03Q21.93 11.41 21.25 11.09L21.25 11.09L21.25 11.09Q20.41 10.45 20.45 9.28L20.45 9.28L20.45 6.10L22.23 6.10L22.23 5.28L20.45 5.28L20.45 1.65L19.48 1.65L19.48 9.44L19.48 9.44Q19.46 10.26 19.85 10.94L19.85 10.94L19.85 10.94Q20.49 12.03 21.60 12.09L21.60 12.09L21.60 12.09Q22.19 12.11 22.94 11.83L22.94 11.83L22.94 11.83Q22.83 11.54 22.64 11.03ZM24.47 12.09L24.47 9.24L24.46 8.44L24.46 8.44Q24.44 7.85 24.51 7.44L24.51 7.44L24.51 7.44Q24.66 6.15 25.16 5.55L25.16 5.55L25.16 5.55Q25.66 5.02 26.17 4.74L26.17 4.74L26.17 4.74Q27.02 4.38 28.10 4.40L28.10 4.40L28.10 4.40Q28.95 4.40 29.67 4.82L29.67 4.82L29.67 4.82Q30.39 5.25 30.70 5.97L30.70 5.97L30.70 5.97Q31.01 6.69 31.01 8.23L31.01 8.23L31.01 12.09L30.05 12.09L30.05 8.51L30.05 8.51Q30.05 7.21 29.94 6.77L29.94 6.77L29.94 6.77Q29.77 6.03 29.26 5.72L29.26 5.72L29.26 5.72Q28.76 5.41 27.77 5.41L27.77 5.41L27.77 5.41Q26.89 5.41 26.21 5.91L26.21 5.91L26.21 5.91Q25.53 6.42 25.57 7.29L25.57 7.29L25.57 7.29Q25.44 7.85 25.44 9.34L25.44 9.34L25.44 12.09L24.47 12.09ZM39.38 9.42L39.38 9.42L40.18 9.85L40.18 9.85Q39.79 10.64 39.27 11.12L39.27 11.12L39.27 11.12Q38.74 11.59 38.08 11.84L38.08 11.84L38.08 11.84Q37.43 12.09 36.60 12.09L36.60 12.09L36.60 12.09Q34.77 12.09 33.74 10.89L33.74 10.89L33.74 10.89Q32.70 9.69 32.70 8.18L32.70 8.18L32.70 8.18Q32.70 6.75 33.58 5.64L33.58 5.64L33.58 5.64Q34.69 4.22 36.55 4.22L36.55 4.22L36.55 4.22Q38.46 4.22 39.61 5.67L39.61 5.67L39.61 5.67Q40.42 6.70 40.43 8.23L40.43 8.23L33.69 8.23L33.69 8.23Q33.72 9.54 34.53 10.38L34.53 10.38L34.53 10.38Q35.33 11.22 36.52 11.22L36.52 11.22L36.52 11.22Q37.09 11.22 37.63 11.02L37.63 11.02L37.63 11.02Q38.17 10.81 38.55 10.49L38.55 10.49L38.55 10.49Q38.93 10.16 39.38 9.42ZM33.80 7.40L39.38 7.40L39.38 7.40Q39.18 6.63 38.81 6.17L38.81 6.17L38.81 6.17Q38.45 5.71 37.84 5.42L37.84 5.42L37.84 5.42Q37.23 5.14 36.56 5.14L36.56 5.14L36.56 5.14Q35.46 5.14 34.67 5.85L34.67 5.85L34.67 5.85Q34.09 6.37 33.80 7.40L33.80 7.40ZM44.93 11.03L44.93 11.03L44.93 11.03Q44.21 11.41 43.53 11.09L43.53 11.09L43.53 11.09Q42.70 10.45 42.74 9.28L42.74 9.28L42.74 6.10L44.52 6.10L44.52 5.28L42.73 5.28L42.73 1.65L41.76 1.65L41.76 9.44L41.76 9.44Q41.75 10.26 42.14 10.94L42.14 10.94L42.14 10.94Q42.78 12.03 43.89 12.09L43.89 12.09L43.89 12.09Q44.47 12.11 45.23 11.83L45.23 11.83L45.23 11.83Q45.11 11.54 44.93 11.03ZM46.74 12.04L46.74 1.91L49.96 1.91L49.96 1.91Q51.16 1.91 51.81 2.19L51.81 2.19L51.81 2.19Q52.46 2.48 52.83 3.08L52.83 3.08L52.83 3.08Q53.20 3.67 53.20 4.39L53.20 4.39L53.20 4.39Q53.20 5.07 52.87 5.62L52.87 5.62L52.87 5.62Q52.54 6.17 51.90 6.51L51.90 6.51L51.90 6.51Q52.70 6.79 53.12 7.15L53.12 7.15L53.12 7.15Q53.55 7.51 53.79 8.02L53.79 8.02L53.79 8.02Q54.02 8.53 54.02 9.13L54.02 9.13L54.02 9.13Q54.02 10.36 53.13 11.20L53.13 11.20L53.13 11.20Q52.23 12.04 50.74 12.04L50.74 12.04L46.74 12.04ZM50.12 2.90L47.73 2.90L47.73 6.15L49.53 6.15L49.53 6.15Q50.58 6.15 51.07 5.95L51.07 5.95L51.07 5.95Q51.57 5.75 51.86 5.33L51.86 5.33L51.86 5.33Q52.15 4.91 52.15 4.39L52.15 4.39L52.15 4.39Q52.15 3.69 51.67 3.29L51.67 3.29L51.67 3.29Q51.18 2.90 50.12 2.90L50.12 2.90ZM49.52 7.16L47.73 7.16L47.73 11.05L50.20 11.05L50.20 11.05Q51.31 11.05 51.83 10.83L51.83 10.83L51.83 10.83Q52.34 10.62 52.66 10.16L52.66 10.16L52.66 10.16Q52.97 9.70 52.97 9.15L52.97 9.15L52.97 9.15Q52.97 8.48 52.53 7.98L52.53 7.98L52.53 7.98Q52.09 7.47 51.32 7.29L51.32 7.29L51.32 7.29Q50.80 7.16 49.52 7.16L49.52 7.16ZM55.88 7.89L55.88 1.77L56.89 1.77L56.89 7.89L56.89 7.89Q56.89 8.98 56.94 9.25L56.94 9.25L56.94 9.25Q57.01 9.85 57.29 10.25L57.29 10.25L57.29 10.25Q57.56 10.65 58.13 10.92L58.13 10.92L58.13 10.92Q58.70 11.19 59.28 11.19L59.28 11.19L59.28 11.19Q59.78 11.32 60.66 11.10L60.66 11.10L60.66 11.10Q61.53 10.88 61.84 10.45L61.84 10.45L61.84 10.45Q62.15 10.01 62.29 9.47L62.29 9.47L62.29 9.47Q62.40 9.08 62.40 7.89L62.40 7.89L62.40 1.77L63.41 1.77L63.41 7.89L63.41 7.89Q63.41 9.25 63.14 10.09L63.14 10.09L63.14 10.09Q62.88 10.92 62.08 11.54L62.08 11.54L62.08 11.54Q61.28 12.16 59.34 12.16L59.34 12.16L59.34 12.16Q58.11 12.16 57.23 11.57L57.23 11.57L57.23 11.57Q56.36 10.99 56.07 10.03L56.07 10.03L56.07 10.03Q55.88 9.43 55.88 7.89L55.88 7.89ZM65.60 12.07L65.60 1.93L66.62 1.93L66.62 12.07L65.60 12.07ZM68.93 12.04L68.93 1.91L69.95 1.91L69.95 11.07L73.84 11.07L73.84 12.04L68.93 12.04ZM75.41 2.92L73.15 2.92L73.15 1.93L78.72 1.93L78.72 2.92L76.45 2.92L76.45 12.07L75.41 12.07L75.41 2.92Z"/>
    </g>
    <defs data-v-fde0c5aa=""> <!---->
    </defs>
    <g data-v-fde0c5aa="" id="f51ae7e4-ee02-4460-9080-5af6422a4eb9" stroke="none" fill="#B276E6" transform="matrix(0.04737723049157051,0,0,0.04737723049157051,40,132.024510826201)">
        <path d="M210.985 0C129.123 0 62.514 66.606 62.514 148.467v166.726c0 17.253-13.972 31.257-31.257 31.257C13.972 346.45 0 360.421 0 377.707c0 .571.02 1.141.05 1.706-.03.563-.05 1.13-.05 1.7 0 17.285 13.972 31.26 31.257 31.26 17.285 0 31.257 14.003 31.257 31.258v166.721c0 81.862 66.609 148.472 148.471 148.472 17.285 0 31.257-13.971 31.257-31.256s-13.972-31.258-31.257-31.258c-47.386 0-85.957-38.541-85.957-85.958V443.631c0-24.828-9.723-47.418-25.535-64.214 15.815-16.795 25.535-39.39 25.535-64.224V148.467c0-47.416 38.571-85.954 85.957-85.954 17.285 0 31.257-13.972 31.257-31.257C242.242 13.971 228.27 0 210.985 0zm252.616 0c-17.285 0-31.254 13.971-31.254 31.256s13.969 31.257 31.254 31.257c47.449 0 85.96 38.538 85.96 85.954v166.726c0 24.831 9.722 47.423 25.538 64.218-15.816 16.794-25.538 39.388-25.538 64.22v166.721c0 47.417-38.511 85.958-85.96 85.958-17.285 0-31.254 13.973-31.254 31.258 0 17.285 13.969 31.256 31.254 31.256 81.895 0 148.474-66.61 148.474-148.472V443.631c0-17.255 14.034-31.258 31.257-31.258 17.285 0 31.254-13.975 31.254-31.26 0-.57-.02-1.137-.05-1.7.03-.565.05-1.135.05-1.706 0-17.286-13.969-31.257-31.254-31.257-17.223 0-31.257-14.004-31.257-31.257V148.467C612.075 66.606 545.465 0 463.601 0z"/>
    </g> <!---->
</svg>